<svg xmlns="http://www.w3.org/2000/svg" viewBox="0 0 20 25" preserveAspectRatio="xMidYMid meet" style="fill: white; vertical-align: middle; width: 20px; height: 25px;"><g stroke-width="1"><path d="M18.2250188,21.0290276 L16.9565096,6.67489115 L14.6865459,6.67489115 L14.6865459,8.6777939 C14.6865459,8.97822932 14.4194914,9.24528302 14.119055,9.24528302 C13.8186186,9.24528302 13.5515641,8.97822932 13.5515641,8.6777939 L13.5515641,6.67489115 L6.84181838,6.67489115 L6.84181838,8.6777939 C6.84181838,8.97822932 6.57476382,9.24528302 6.27432745,9.24528302 C5.97389107,9.24528302 5.70683652,8.97822932 5.70683652,8.6777939 L5.70683652,6.67489115 L3.43687281,6.67489115 L2.16836368,21.0290276 C2.16836368,22.030479 3.20320007,22.8650218 4.43832739,22.8650218 L15.9884369,22.8650218 C17.1901824,22.8650218 18.1916369,22.030479 18.2250188,21.0290276 L18.2250188,21.0290276 Z M6.84181838,5.53991292 L13.5515641,5.53991292 C13.5515641,3.70391872 12.0493822,2.20174165 10.2133821,2.20174165 C8.34400024,2.16835994 6.84181838,3.67053701 6.84181838,5.53991292 L6.84181838,5.53991292 Z M19.3600006,20.9288824 L19.3600006,20.9956459 C19.3600006,22.6647315 17.8244369,24 15.955055,24 L4.40494557,24 C2.53556369,24 1,22.6647315 1,20.9956459 L1,20.9288824 L2.33527277,6.04063861 C2.36865459,5.74020319 2.60232733,5.5065312 2.9027637,5.5065312 L5.6734547,5.5065312 C5.6734547,3.03628447 7.70974568,1 10.1800003,1 C12.6502549,1 14.6865459,3.00290276 14.6865459,5.5065312 L17.4572369,5.5065312 C17.7576733,5.5065312 17.991346,5.74020319 18.0247278,6.04063861 L19.3600006,20.9288824 Z"></path></g></svg>