<?xml version="1.0" encoding="UTF-8"?>
<svg width="24px" height="24px" viewBox="0 0 24 24" version="1.1" xmlns="http://www.w3.org/2000/svg" xmlns:xlink="http://www.w3.org/1999/xlink">
    <!-- Generator: sketchtool 61.2 (101010) - https://sketch.com -->
    <title>96A842F4-D175-4146-9914-699BA9781B46</title>
    <desc>Created with sketchtool.</desc>
    <g id="Page-1" stroke="none" stroke-width="1" fill="none" fill-rule="evenodd">
        <g id="5.1-my-bag" transform="translate(-1368.000000, -112.000000)" fill="#3B4951" fill-rule="nonzero">
            <g id="icons/edit" transform="translate(1368.000000, 112.000000)">
                <g id="Group">
                    <path d="M7.53125,16.7890625 L12.140625,14.8359375 C12.2057292,14.8098958 12.2708333,14.7708333 12.3359375,14.71875 L20.0898438,6.9453125 C20.3632813,6.671875 20.5,6.33984375 20.5,5.94921875 C20.5,5.55859375 20.3632813,5.2265625 20.0898438,4.953125 L18.546875,3.41015625 C18.2734375,3.13671875 17.9414062,3 17.5507812,3 C17.1601563,3 16.828125,3.13671875 16.5546875,3.41015625 L8.80078125,11.1640625 C8.73567708,11.2291667 8.69010417,11.3007813 8.6640625,11.3789063 L6.7109375,15.96875 C6.60677083,16.2291667 6.65234375,16.4570313 6.84765625,16.6523438 C7.04296875,16.8476563 7.27083333,16.8932292 7.53125,16.7890625 Z M17.8828125,7.16015625 L16.3398438,5.6171875 L17.5507812,4.40625 L19.09375,5.94921875 L17.8828125,7.16015625 Z M8.76171875,14.7382812 L9.89453125,12.0625 L15.34375,6.61328125 L16.8867188,8.15625 L11.4375,13.6054688 L8.76171875,14.7382812 Z M19.796875,20.5 C19.9921875,20.5 20.1582031,20.4316406 20.2949219,20.2949219 C20.4316406,20.1582031 20.5,19.9921875 20.5,19.796875 C20.5,19.6015625 20.4316406,19.4355469 20.2949219,19.2988281 C20.1582031,19.1621094 19.9921875,19.09375 19.796875,19.09375 L3.703125,19.09375 C3.5078125,19.09375 3.34179688,19.1621094 3.20507812,19.2988281 C3.06835938,19.4355469 3,19.6015625 3,19.796875 C3,19.9921875 3.06835938,20.1582031 3.20507812,20.2949219 C3.34179688,20.4316406 3.5078125,20.5 3.703125,20.5 L19.796875,20.5 Z" id=""></path>
                </g>
            </g>
        </g>
    </g>
</svg>