<?xml version="1.0" encoding="UTF-8"?>
<svg width="25px" height="24px" viewBox="0 0 25 24" version="1.1" xmlns="http://www.w3.org/2000/svg" xmlns:xlink="http://www.w3.org/1999/xlink">
    <title>BEA07D2B-4311-4219-8FAE-FDD00C32DB3A</title>
    <g id="Page-1" stroke="none" stroke-width="1" fill="none" fill-rule="evenodd" opacity="0.6">
        <g id="checkout_1" transform="translate(-767.000000, -1376.000000)" fill="#3B4951" fill-rule="nonzero">
            <g id="icons/edit" transform="translate(767.500000, 1375.000000)">
                <g id="pen" transform="translate(0.000000, 0.500000)">
                    <path d="M19.3322613,3.80319368 C18.3135886,2.78631523 16.6639749,2.78631523 15.6453022,3.80319368 L14.7223798,4.73117272 L4.89793781,14.5503949 L4.87705869,14.5714372 C4.87200202,14.5764938 4.87200202,14.5818767 4.86661913,14.5818767 C4.85617957,14.5975361 4.84052023,14.6130323 4.83024378,14.6286916 C4.83024378,14.6339114 4.82486089,14.6339114 4.82486089,14.6391312 C4.81442133,14.6547905 4.80936466,14.6652301 4.79876199,14.6808894 C4.79370532,14.6861092 4.79370532,14.6911659 4.78848554,14.6965487 C4.78326576,14.7122081 4.77804598,14.7226476 4.77266309,14.738307 C4.77266309,14.7433637 4.76760642,14.7433637 4.76760642,14.7487465 L2.58785881,21.3034856 C2.5239165,21.4900927 2.57252573,21.6967634 2.71297043,21.8352507 C2.81165693,21.9326322 2.94476132,21.9871137 3.08324861,21.9866276 C3.13985057,21.9856456 3.19596321,21.9768372 3.25011847,21.9605254 L9.79980081,19.775558 C9.80485748,19.775558 9.80485748,19.775558 9.81024037,19.7705014 C9.82671529,19.7656079 9.84253774,19.7585938 9.85705528,19.7494591 C9.86113322,19.7489698 9.8647218,19.7471755 9.86765795,19.7444025 C9.88315418,19.7339629 9.9040333,19.7233602 9.91969264,19.7129207 C9.93518883,19.7026442 9.95101132,19.6869849 9.96667067,19.6765453 C9.97189045,19.6711624 9.97694708,19.6711624 9.97694708,19.6661058 C9.98233001,19.660886 9.99276957,19.6558293 9.99798935,19.6452266 L20.7453537,8.89786228 C21.7622321,7.87918956 21.7622321,6.2295759 20.7453537,5.21106629 L19.3322613,3.80319368 Z M9.63293095,18.5500515 L6.00355253,14.9208362 L15.0874382,5.83695055 L18.7168166,9.46616585 L9.63293095,18.5500515 Z M5.49234029,15.8855168 L8.66303056,19.056044 L3.90193848,20.641226 L5.49234029,15.8855168 Z M20.0101802,8.16774553 L19.4573729,8.72577269 L15.8278313,5.09623112 L16.3860216,4.53836711 C16.9965728,3.9283053 17.9862105,3.9283053 18.5969247,4.53836711 L20.0152369,5.95667928 C20.6212208,6.57000345 20.6189371,7.5573575 20.0101802,8.16774553 Z" id="Shape"></path>
                </g>
            </g>
        </g>
    </g>
</svg>