<svg xmlns="http://www.w3.org/2000/svg" viewBox="0 0 27 27" preserveAspectRatio="xMidYMid meet" style="fill: white; vertical-align: middle; width: 27px; height: 27px;"><g stroke-width="1"><path d="M21.5440047,21.2890386 C21.1850537,18.4052807 19.3511186,15.8932901 16.7486486,14.7138175 C17.7453328,13.7777711 18.3719147,12.4524837 18.3719147,10.980779 C18.3719147,8.15275602 16.0702282,5.85195585 13.2411157,5.85195585 C10.4120033,5.85195585 8.11031668,8.15275602 8.11031668,10.980779 C8.11031668,12.4533875 8.73780279,13.7789762 9.73539119,14.7153238 C7.2064594,15.8758164 5.47499556,18.3387 5.13593606,21.2658408 C3.26342347,19.1783399 2.20163981,16.3798414 2.20616061,13.4957822 C2.21550358,7.27003447 7.28210735,2.20477935 13.5006092,2.20477935 C19.7278514,2.20508062 24.7944551,7.2697332 24.7944551,13.4951797 C24.7944551,16.5157143 23.562991,19.2605866 21.5440047,21.2890386 M13.2411157,14.9045215 C11.0765599,14.9045215 9.31586157,13.1445012 9.31586157,10.980779 C9.31586157,8.81705671 11.0765599,7.05703647 13.2411157,7.05703647 C15.4056716,7.05703647 17.1663699,8.81735798 17.1663699,10.980779 C17.1663699,13.1441999 15.4056716,14.9045215 13.2411157,14.9045215 M13.4752928,24.78558 C13.3221886,24.7919067 13.1693858,24.7949194 13.0177885,24.7949194 C10.5259272,24.7949194 8.16516897,23.9356969 6.2703538,22.3585476 C6.27095657,22.3464968 6.27397044,22.3350486 6.27397044,22.3226965 C6.27397044,19.1563472 8.13111233,16.4617869 10.9123044,15.5450218 C11.6121232,15.903232 12.4020565,16.1096021 13.2411157,16.1096021 C14.0798736,16.1096021 14.8701082,15.903232 15.5702284,15.5450218 C18.4174241,16.4798631 20.3936135,19.2181075 20.4080801,22.2883517 C18.5048261,23.75855 16.1094084,24.677424 13.4752928,24.78558 M13.5000065,1 C6.6181535,1 1.01056147,6.60482996 1.00001295,13.4942759 C0.995190771,16.8953146 2.33726361,20.1927165 4.68295257,22.5411174 C6.91110091,24.7714203 9.87101499,26 13.0180899,26 C13.185962,26 13.3550397,25.996686 13.5250215,25.9894555 C20.5201957,25.7029476 26,20.2147092 26,13.4951797 C26,6.60513123 20.3927094,1 13.5000065,1"></path></g></svg>