<?xml version="1.0" encoding="UTF-8"?>
<svg width="40px" height="60px" viewBox="0 0 40 60" version="1.1" xmlns="http://www.w3.org/2000/svg" xmlns:xlink="http://www.w3.org/1999/xlink">
    <!-- Generator: sketchtool 61.2 (101010) - https://sketch.com -->
    <title>E459199F-0BC7-4C93-A8AC-1263B163A928</title>
    <desc>Created with sketchtool.</desc>
    <g id="Asset-Artboard-Page" stroke="none" stroke-width="1" fill="none" fill-rule="evenodd">
        <g id="logo/mark" fill="#F05323">
            <g id="Group" transform="translate(0.000000, -0.000000)">
                <path d="M21.5199276,0 C21.5199276,0 30.9319594,8.72711301 32.9586378,16.1087961 C33.5769465,18.3633003 37.0806956,26.4358798 26.3976959,35.3084447 C26.3976959,35.3084447 21.0733713,38.5447491 20.6268151,48.0354845 C20.5924646,48.0718475 20.7298665,57.8898497 21.1764228,59.8170871 C21.4168761,60.8352503 -2.11320349,58.3625683 0.153928267,32.5812219 C0.153928267,32.5812219 0.291330192,25.017724 12.6575034,19.8541821 C12.6575034,19.8541821 21.9321334,16.7996925 22.7221944,9.19983163 C22.7221944,9.19983163 23.477905,2.90903767 21.5199276,0 Z M39.4575742,26 C39.4575742,26 40.2445959,39.2031051 39.9226325,43.0508672 L39.9221228,43.130214 C39.9060454,43.9653601 39.5059739,51.2123833 30.5499185,56.2539723 C29.0474224,57.1216049 22,60.4412428 22,59.9508417 C22,59.4604407 22.4292846,48.6716177 22.4650583,47.5021998 L22.4650583,47.3513071 L22.4650583,47.3513071 C22.4292846,46.7854598 22.3935109,42.7490819 27.6880211,38.3731957 C27.7237948,38.3731957 35.808655,32.714722 39.4575742,26 Z" id="Combined-Shape"></path>
            </g>
        </g>
    </g>
</svg>