<?xml version="1.0" encoding="UTF-8"?>
<svg width="48px" height="64px" viewBox="0 0 48 64" version="1.1" xmlns="http://www.w3.org/2000/svg" xmlns:xlink="http://www.w3.org/1999/xlink">
    <!-- Generator: sketchtool 61.1 (101010) - https://sketch.com -->
    <title>D3CFCF74-3583-4684-B88E-3F8A295E6D14</title>
    <desc>Created with sketchtool.</desc>
    <g id="Page-1" stroke="none" stroke-width="1" fill="none" fill-rule="evenodd">
        <g id="store-selector" transform="translate(-820.000000, -174.000000)">
            <g id="icons/location" transform="translate(820.000000, 174.000000)">
                <g>
                    <path d="M24,64 C40,46.1698893 48,32.836556 48,24 C48,10.745166 37.254834,0 24,0 C10.745166,0 0,10.745166 0,24 C0,32.836556 8,46.1698893 24,64 Z" id="Oval" fill="#F05323"></path>
                    <path d="M24.7599638,9 C24.7599638,9 29.4659797,13.3635565 30.4793189,17.0543981 C30.7884732,18.1816501 32.5403478,22.2179399 27.198848,26.6542224 C27.198848,26.6542224 24.5366857,28.2723746 24.3134075,33.0177423 C24.2962323,33.0359238 24.3649333,37.9449248 24.5882114,38.9085436 C24.7084381,39.4176251 12.9433983,38.1812841 14.0769641,25.290611 C14.0769641,25.290611 14.1456651,21.508862 20.3287517,18.9270911 C20.3287517,18.9270911 24.9660667,17.3998463 25.3610972,13.5999158 C25.3610972,13.5999158 25.7389525,10.4545188 24.7599638,9 Z M33.7287871,22 C33.7287871,22 34.122298,28.6015526 33.9613162,30.5254336 L33.9611384,30.5608734 C33.9543602,30.9575035 33.7685357,34.5974389 29.2749592,37.1269862 C28.5237112,37.5608025 25,39.2206214 25,38.9754209 C25,38.7302203 25.2146423,33.3358088 25.2325292,32.7510999 L25.2325292,32.6756536 L25.2325292,32.6756536 C25.2146423,32.3927299 25.1967554,30.374541 27.8440105,28.1865978 C27.8618974,28.1865978 31.9043275,25.357361 33.7287871,22 Z" id="Combined-Shape" fill="#FFFFFF" fill-rule="nonzero"></path>
                </g>
            </g>
        </g>
    </g>
</svg>