<?xml version="1.0" encoding="UTF-8"?>
<svg width="150px" height="150px" viewBox="0 0 150 150" version="1.1" xmlns="http://www.w3.org/2000/svg" xmlns:xlink="http://www.w3.org/1999/xlink">
    <title>product/option_food</title>
    <defs>
        <circle id="path-1" cx="75" cy="75" r="75"></circle>
    </defs>
    <g id="Symbols" stroke="none" stroke-width="1" fill="none" fill-rule="evenodd">
        <g id="product/option_food" transform="translate(-1.000000, -1.000000)">
            <g transform="translate(1.000000, 1.000000)">
                <mask id="mask-2" fill="white">
                    <use xlink:href="#path-1"></use>
                </mask>
                <rect id="Rectangle" fill="#D8D8D8" x="0" y="0" width="150" height="150"></rect>
                <path d="M62.922545,60 C64.7621024,60 66.3388658,60.8112676 67.3900415,62.1633803 L67.3900415,62.1633803 L79.0843707,76.7661972 C79.2157676,77.0366197 79.4785615,77.3070423 79.7413555,77.5774648 C80.5297372,78.3887324 81.4495159,78.7943662 82.6320885,78.7943662 C83.8146611,78.7943662 84.8658368,78.2535211 85.6542185,77.4422535 C85.7856155,77.3070423 85.9170124,77.0366197 86.0484094,76.9014085 L86.0484094,76.9014085 L89.2019364,72.9802817 C89.9903181,72.0338028 91.3042877,71.3577465 92.6182573,71.3577465 C94.0636238,71.3577465 95.2461964,72.0338028 96.0345781,72.9802817 L96.0345781,72.9802817 L119.948824,102.861972 L120.474412,103.267606 C120.868603,103.808451 121,104.349296 121,105.025352 C121,106.647887 119.68603,108 118.109267,108 L118.109267,108 L29.8105118,108 C27.7081604,108 26,106.242254 26,104.078873 C26,103.267606 26.2627939,102.591549 26.6569848,101.915493 L26.6569848,101.915493 L27.1825726,101.239437 L58.4550484,62.1633803 C59.5062241,60.8112676 61.0829876,60 62.922545,60 Z M114,43 C119.479452,43 124,47.5205479 124,53 C124,58.4794521 119.479452,63 114,63 C108.520548,63 104,58.4794521 104,53 C104,47.5205479 108.520548,43 114,43 Z" id="Combined-Shape" fill="#AEAEAE" mask="url(#mask-2)"></path>
            </g>
        </g>
    </g>
</svg>