<?xml version="1.0" encoding="UTF-8"?>
<svg width="380px" height="252px" viewBox="0 0 380 252" version="1.1" xmlns="http://www.w3.org/2000/svg" xmlns:xlink="http://www.w3.org/1999/xlink">
    <title>image/default</title>
    <g id="Symbols" stroke="none" stroke-width="1" fill="none" fill-rule="evenodd">
        <g id="image/default">
            <g>
                <rect id="Rectangle" fill="#EAEAEA" x="0" y="0" width="380" height="252"></rect>
                <path d="M167.124481,97 C170.66805,97 173.705394,98.5380282 175.73029,101.101408 L175.73029,101.101408 L198.257261,128.785915 C198.510373,129.298592 199.016598,129.811268 199.522822,130.323944 C201.041494,131.861972 202.813278,132.630986 205.091286,132.630986 C207.369295,132.630986 209.394191,131.605634 210.912863,130.067606 C211.165975,129.811268 211.419087,129.298592 211.672199,129.042254 L211.672199,129.042254 L217.746888,121.608451 C219.26556,119.814085 221.79668,118.532394 224.327801,118.532394 C227.112033,118.532394 229.390041,119.814085 230.908714,121.608451 L230.908714,121.608451 L276.975104,178.259155 L277.987552,179.028169 C278.746888,180.053521 279,181.078873 279,182.360563 C279,185.43662 276.46888,188 273.431535,188 L273.431535,188 L103.340249,188 C99.2904564,188 96,184.667606 96,180.566197 C96,179.028169 96.5062241,177.746479 97.2655602,176.464789 L97.2655602,176.464789 L98.2780083,175.183099 L158.518672,101.101408 C160.543568,98.5380282 163.580913,97 167.124481,97 Z M265,64 C275.410959,64 284,72.5890411 284,83 C284,93.4109589 275.410959,102 265,102 C254.589041,102 246,93.4109589 246,83 C246,72.5890411 254.589041,64 265,64 Z" id="Combined-Shape" fill="#AEAEAE"></path>
            </g>
        </g>
    </g>
</svg>